<svg id="visual" viewBox="0 0 900 600" width="900" height="600" xmlns="http://www.w3.org/2000/svg" xmlns:xlink="http://www.w3.org/1999/xlink" version="1.1"><rect x="0" y="0" width="900" height="600" fill="#931C1C"></rect><path d="M0 356L113 301L225 314L338 405L450 335L563 369L675 402L788 288L900 338L900 601L788 601L675 601L563 601L450 601L338 601L225 601L113 601L0 601Z" fill="#f5730a"></path><path d="M0 407L113 442L225 346L338 344L450 431L563 437L675 354L788 428L900 439L900 601L788 601L675 601L563 601L450 601L338 601L225 601L113 601L0 601Z" fill="#da5b09"></path><path d="M0 401L113 453L225 459L338 413L450 394L563 450L675 486L788 455L900 400L900 601L788 601L675 601L563 601L450 601L338 601L225 601L113 601L0 601Z" fill="#be4407"></path><path d="M0 527L113 505L225 534L338 474L450 459L563 491L675 483L788 449L900 493L900 601L788 601L675 601L563 601L450 601L338 601L225 601L113 601L0 601Z" fill="#a32d04"></path><path d="M0 571L113 559L225 571L338 508L450 541L563 540L675 509L788 503L900 565L900 601L788 601L675 601L563 601L450 601L338 601L225 601L113 601L0 601Z" fill="#871400"></path></svg>